<svg width="53" height="51" viewBox="0 0 53 51" fill="none" xmlns="http://www.w3.org/2000/svg">
<path d="M31.8327 7.35524C36.3247 0.249492 29.2579 -0.442532 25.2867 0.177745C23.4101 0.487882 19.8927 1.98541 19.788 4.43107C19.6571 7.48815 26.2031 16.2606 31.8327 7.35524Z" fill="white"/>
<path d="M40.8663 30.7485C42.0445 23.4381 31.0472 13.0706 26.2031 13.0706C21.0972 13.0706 10.8854 26.0965 12.0637 31.0144C12.7214 34.1529 19.7224 35.3508 26.5959 35.5335C33.4039 35.7145 40.0845 34.9154 40.8663 30.7485Z" fill="white"/>
<path d="M26.5959 37.6602C7.32179 37.6602 0.896615 38.3248 0.41173 40.3185C-0.137808 42.5781 9.83801 50.4202 26.2031 50.686C42.5682 50.9518 53.1728 42.711 52.3873 40.1856C51.5436 37.4731 41.6518 37.6602 26.5959 37.6602Z" fill="white"/>
</svg>
