<svg width="931" height="918" viewBox="0 0 931 918" fill="none" xmlns="http://www.w3.org/2000/svg">
<g opacity="0.66">
<path d="M648.995 155.436C746.173 44.0566 625.243 13.0111 554.569 13.1C521.127 13.4381 455.978 29.9918 447.575 72.2059C437.072 124.974 527.204 295.024 648.995 155.436Z" stroke="#E2F7EA" stroke-width="25.2174"/>
<path d="M742.997 586.234C783.147 462.38 619.961 252.633 535.79 239.595C447.07 225.852 234.568 424.703 241.805 513.328C244.787 569.633 363.211 609.292 482.154 630.968C599.964 652.438 718.197 656.533 742.997 586.234Z" stroke="#E2F7EA" stroke-width="25.2174"/>
<path d="M476.43 667.922C141.522 616.043 28.089 610.297 14.2972 643.636C-1.33347 681.419 150.899 844.534 434.545 893.202C718.19 941.869 924.638 827.22 917.786 781.223C910.426 731.82 738.042 708.446 476.43 667.922Z" stroke="#E2F7EA" stroke-width="25.2174"/>
</g>
</svg>
