<svg width="24" height="24" viewBox="0 0 24 24" fill="none" xmlns="http://www.w3.org/2000/svg">
<path d="M14.5014 3.70258C16.5731 0.425399 13.3139 0.106237 11.4823 0.392309C10.6169 0.535345 8.99463 1.22601 8.94632 2.35395C8.88594 3.76388 11.905 7.80976 14.5014 3.70258Z" fill="#3A5645"/>
<path d="M18.6676 14.4916C19.2111 11.12 14.1391 6.33853 11.905 6.33853C9.55013 6.33853 4.84043 12.3461 5.38385 14.6142C5.6872 16.0617 8.91605 16.6142 12.0861 16.6984C15.226 16.7819 18.3071 16.4134 18.6676 14.4916Z" fill="#3A5645"/>
<path d="M12.0861 17.6793C3.19689 17.6793 0.233589 17.9858 0.00995872 18.9053C-0.243489 19.9474 4.35737 23.5642 11.905 23.6868C19.4526 23.8094 24.3434 20.0087 23.9812 18.844C23.592 17.593 19.0299 17.6793 12.0861 17.6793Z" fill="#3A5645"/>
</svg>
